<?xml version="1.0" encoding="utf-8"?>
<!-- Generator: Adobe Illustrator 15.0.0, SVG Export Plug-In . SVG Version: 6.00 Build 0)  -->
<!DOCTYPE svg PUBLIC "-//W3C//DTD SVG 1.0//EN" "http://www.w3.org/TR/2001/REC-SVG-20010904/DTD/svg10.dtd">
<svg version="1.0" id="Layer_1" xmlns="http://www.w3.org/2000/svg" xmlns:xlink="http://www.w3.org/1999/xlink" x="0px" y="0px"
	 width="186px" height="66px" viewBox="0 0 186 66" enable-background="new 0 0 186 66" xml:space="preserve">
<g>
	<path fill="#FFFFFF" d="M43.667,37.318c0.026-0.014,0.153-0.027,0.38-0.041c0.227-0.013,0.483-0.025,0.77-0.039
		c0.287-0.014,0.56-0.023,0.82-0.03c0.26-0.007,0.43-0.011,0.51-0.011c0-0.08,0.003-0.199,0.01-0.359s0.013-0.34,0.02-0.54
		s0.013-0.403,0.02-0.609c0.007-0.207,0.017-0.391,0.03-0.551c-0.32-0.066-0.607-0.152-0.86-0.26c-0.373-0.16-0.723-0.353-1.05-0.58
		c-0.327-0.227-0.61-0.49-0.85-0.79c-0.24-0.3-0.427-0.637-0.56-1.01c-0.133-0.374-0.2-0.78-0.2-1.22c0-0.48,0.066-0.907,0.2-1.28
		c0.133-0.374,0.313-0.707,0.54-1h-0.62c-0.32,0-0.597-0.104-0.83-0.31c-0.233-0.207-0.35-0.457-0.35-0.75
		c0-0.307,0.117-0.563,0.35-0.77c0.233-0.207,0.51-0.31,0.83-0.31h2.84v-1.02c0-0.267,0.146-0.483,0.44-0.65
		c0.293-0.167,0.6-0.25,0.92-0.25c0.333,0,0.63,0.083,0.89,0.25c0.26,0.167,0.39,0.383,0.39,0.65v1.02h3.08
		c0.333,0,0.617,0.104,0.85,0.31s0.35,0.463,0.35,0.77c0,0.293-0.117,0.543-0.35,0.75s-0.517,0.31-0.85,0.31h-0.48
		c0.227,0.293,0.41,0.626,0.55,1c0.14,0.373,0.21,0.8,0.21,1.28c0,0.627-0.14,1.19-0.42,1.69c-0.28,0.5-0.674,0.943-1.18,1.33
		c-0.227,0.16-0.46,0.304-0.7,0.431c-0.24,0.126-0.487,0.223-0.74,0.29c0.013,0.146,0.023,0.326,0.03,0.539
		c0.007,0.214,0.01,0.428,0.01,0.641s0,0.409,0,0.59c0,0.18,0,0.31,0,0.39v0.02c0.053,0,0.17,0.004,0.35,0.011
		c0.18,0.007,0.376,0.017,0.59,0.03c0.213,0.014,0.41,0.023,0.59,0.029c0.18,0.008,0.303,0.01,0.37,0.01h0.94
		c0.44,0,0.793,0.08,1.06,0.24c0.146,0.094,0.26,0.214,0.34,0.36c0.08,0.147,0.13,0.304,0.15,0.47c0.02,0.167,0.013,0.33-0.02,0.49
		c-0.034,0.16-0.083,0.3-0.15,0.42c-0.12,0.213-0.293,0.344-0.52,0.391c-0.227,0.046-0.447,0.069-0.66,0.069h-8.28
		c-0.16-0.013-0.293-0.03-0.4-0.05c-0.107-0.02-0.22-0.043-0.34-0.07s-0.227-0.06-0.32-0.1c-0.28-0.146-0.453-0.42-0.52-0.82
		c-0.027-0.213-0.01-0.387,0.05-0.52s0.156-0.26,0.29-0.381c0.24-0.199,0.49-0.326,0.75-0.379
		C43.197,37.345,43.44,37.318,43.667,37.318z M47.567,32.878c0.427-0.08,0.8-0.24,1.12-0.48c0.32-0.24,0.48-0.613,0.48-1.12
		c0-0.293-0.057-0.543-0.17-0.75c-0.114-0.207-0.26-0.373-0.44-0.5c-0.18-0.126-0.39-0.223-0.63-0.29c-0.24-0.066-0.48-0.1-0.72-0.1
		c-0.253-0.013-0.5,0.007-0.74,0.06c-0.24,0.054-0.453,0.144-0.64,0.27c-0.187,0.127-0.336,0.297-0.45,0.51s-0.17,0.48-0.17,0.8
		c0,0.36,0.07,0.657,0.21,0.89s0.323,0.41,0.55,0.53s0.48,0.193,0.76,0.22C47.007,32.945,47.288,32.931,47.567,32.878z
		 M56.487,38.197v0.281c0,0.173,0,0.362,0,0.569c0,0.206-0.017,0.41-0.05,0.61c-0.034,0.199-0.08,0.393-0.14,0.58
		c-0.06,0.186-0.15,0.34-0.27,0.459c-0.2,0.174-0.42,0.261-0.66,0.261h-0.04c-0.32-0.014-0.577-0.11-0.77-0.29
		c-0.194-0.18-0.337-0.4-0.43-0.66s-0.153-0.533-0.18-0.82s-0.04-0.55-0.04-0.789V26.618c0-0.013,0-0.076,0-0.19
		c0-0.113,0.01-0.247,0.03-0.4s0.06-0.313,0.12-0.48c0.06-0.167,0.143-0.303,0.25-0.41c0.106-0.093,0.246-0.163,0.42-0.21
		c0.173-0.046,0.333-0.07,0.48-0.07c0.307,0,0.56,0.1,0.76,0.3c0.173,0.187,0.283,0.384,0.33,0.59
		c0.046,0.207,0.077,0.423,0.09,0.65c0.013,0.04,0.02,0.08,0.02,0.12c0,0.04,0.007,0.086,0.02,0.14c0.013,0.12,0.023,0.29,0.03,0.51
		c0.006,0.22,0.013,0.453,0.02,0.7c0.006,0.247,0.01,0.503,0.01,0.77c0,0.267,0,0.514,0,0.74v6.78
		C56.514,36.852,56.514,37.531,56.487,38.197z"/>
	<path fill="#FFFFFF" d="M64.047,24.878c0.68,0.04,1.297,0.144,1.85,0.31s1.02,0.403,1.4,0.71s0.667,0.68,0.86,1.12
		c0.193,0.44,0.263,0.94,0.21,1.5c-0.094,0.96-0.514,1.7-1.26,2.22s-1.76,0.78-3.04,0.78c-0.347,0-0.677-0.003-0.99-0.01
		c-0.313-0.006-0.624-0.026-0.93-0.06c-0.307-0.033-0.607-0.09-0.9-0.17c-0.293-0.08-0.594-0.193-0.9-0.34
		c-0.587-0.307-0.983-0.71-1.19-1.21c-0.207-0.5-0.31-1.01-0.31-1.53c0-1.146,0.45-1.986,1.35-2.52
		C61.097,25.145,62.38,24.878,64.047,24.878z M65.247,34.718c0.013,0.601-0.017,1.113-0.09,1.54c-0.074,0.427-0.264,0.733-0.57,0.92
		c-0.16,0.094-0.343,0.15-0.55,0.17c-0.207,0.02-0.407,0.004-0.6-0.05c-0.193-0.054-0.36-0.137-0.5-0.25s-0.217-0.25-0.23-0.41
		c-0.027-0.173-0.043-0.433-0.05-0.779c-0.007-0.347-0.01-0.733-0.01-1.16c-0.333-0.014-0.733-0.03-1.2-0.05
		c-0.467-0.021-0.873-0.03-1.22-0.03c-0.187-0.026-0.374-0.057-0.56-0.09c-0.187-0.033-0.36-0.137-0.52-0.311
		c-0.16-0.16-0.24-0.393-0.24-0.7c0-0.28,0.08-0.513,0.24-0.7c0.093-0.106,0.21-0.187,0.35-0.24c0.14-0.053,0.276-0.093,0.41-0.12
		c0.133-0.027,0.25-0.04,0.35-0.04c0.1,0,0.157,0,0.17,0h6.84c0.267-0.027,0.543-0.027,0.83,0c0.287,0.027,0.53,0.133,0.73,0.32
		c0.253,0.253,0.38,0.54,0.38,0.86c0,0.2-0.054,0.384-0.16,0.551c-0.107,0.167-0.253,0.283-0.44,0.35
		c-0.24,0.106-0.503,0.174-0.79,0.2s-0.557,0.033-0.81,0.02H65.247z M72.627,38.979c0.08,0.025,0.17,0.069,0.27,0.129
		c0.1,0.061,0.193,0.141,0.28,0.24c0.087,0.1,0.144,0.217,0.17,0.35c0.08,0.508,0,0.9-0.24,1.181c-0.147,0.187-0.307,0.3-0.48,0.34
		s-0.267,0.06-0.28,0.06h-10.44c-0.507,0-0.907-0.083-1.2-0.25c-0.293-0.166-0.44-0.402-0.44-0.709v-1.78
		c-0.027-0.294-0.027-0.593,0-0.9c0.026-0.28,0.133-0.507,0.32-0.68c0.187-0.173,0.42-0.261,0.7-0.261
		c0.066,0,0.156,0.004,0.27,0.011c0.113,0.007,0.203,0.023,0.27,0.05c0.173,0.054,0.307,0.133,0.4,0.24
		c0.093,0.106,0.167,0.23,0.22,0.369c0.053,0.141,0.087,0.287,0.1,0.44s0.027,0.304,0.04,0.45c0,0.107,0.007,0.217,0.02,0.33
		s0.033,0.217,0.06,0.311c0.026,0.013,0.15,0.029,0.37,0.049c0.22,0.021,0.563,0.031,1.03,0.031c0.4,0,0.757-0.008,1.07-0.021
		c0.313-0.014,0.477-0.021,0.49-0.021h6.86C72.5,38.938,72.547,38.951,72.627,38.979z M65.767,28.598
		c0.066-0.386-0.01-0.71-0.23-0.97c-0.22-0.26-0.543-0.45-0.97-0.57c-0.28-0.08-0.597-0.13-0.95-0.15
		c-0.354-0.02-0.694,0.003-1.02,0.07c-0.327,0.067-0.61,0.183-0.85,0.35c-0.24,0.167-0.387,0.397-0.44,0.69
		c-0.08,0.4,0.01,0.747,0.27,1.04c0.26,0.293,0.776,0.474,1.55,0.54c0.267,0.027,0.54,0.04,0.82,0.04c0.28,0,0.543-0.03,0.79-0.09
		s0.46-0.153,0.64-0.28c0.18-0.127,0.303-0.31,0.37-0.55L65.767,28.598z M72.917,35.428c-0.02,0.127-0.04,0.257-0.06,0.391
		c-0.02,0.133-0.043,0.257-0.07,0.37c-0.027,0.112-0.054,0.21-0.08,0.29c-0.067,0.159-0.173,0.307-0.32,0.439
		c-0.147,0.094-0.304,0.146-0.47,0.16c-0.167,0.014-0.323,0.007-0.47-0.021c-0.093-0.026-0.177-0.046-0.25-0.06
		s-0.143-0.053-0.21-0.12c-0.36-0.36-0.52-0.866-0.48-1.52l0.04-3.88c-0.48,0-0.933-0.037-1.36-0.11
		c-0.427-0.073-0.72-0.223-0.88-0.45c-0.094-0.133-0.14-0.287-0.14-0.46s0.04-0.343,0.12-0.51c0.08-0.167,0.187-0.307,0.32-0.42
		s0.28-0.177,0.44-0.19c0.16,0,0.373-0.007,0.64-0.02c0.267-0.013,0.553-0.02,0.86-0.02v-2.2c0-0.146,0-0.313,0-0.5
		c0-0.187,0.01-0.37,0.03-0.55s0.057-0.35,0.11-0.51c0.053-0.16,0.12-0.287,0.2-0.38c0.146-0.146,0.293-0.233,0.44-0.26
		c0.146-0.027,0.3-0.04,0.46-0.04c0.466,0,0.787,0.227,0.96,0.68c0.106,0.293,0.167,0.586,0.18,0.88s0.027,0.593,0.04,0.9v0.1
		c0.027,1.013,0.033,2.017,0.02,3.01c-0.013,0.994-0.02,1.963-0.02,2.91v1.78C72.954,35.198,72.937,35.302,72.917,35.428z"/>
	<path fill="#FFFFFF" d="M85.066,37.218c0-0.16,0-0.319,0-0.479v-6.36c0-0.213,0-0.427,0-0.64c0-0.213-0.013-0.433-0.04-0.66
		c-0.013-0.066-0.03-0.16-0.05-0.28s-0.063-0.193-0.13-0.22c-0.067-0.04-0.144-0.056-0.23-0.05c-0.087,0.007-0.17,0.003-0.25-0.01
		c-0.094-0.013-0.184-0.013-0.27,0c-0.087,0.013-0.177,0.013-0.27,0h-0.94c-0.227,0.013-0.454,0.013-0.68,0
		c-0.227-0.013-0.454-0.013-0.68,0c-0.106,0.013-0.203,0.017-0.29,0.01c-0.087-0.006-0.184-0.01-0.29-0.01
		c-0.147,0-0.3-0.007-0.46-0.02c-0.16-0.013-0.307-0.067-0.44-0.16c-0.187-0.133-0.313-0.3-0.38-0.5s-0.1-0.407-0.1-0.62
		c-0.013-0.253,0.04-0.506,0.16-0.76c0.066-0.16,0.153-0.273,0.26-0.34c0.066-0.066,0.163-0.123,0.29-0.17
		c0.127-0.046,0.237-0.083,0.33-0.11c0.28-0.066,0.573-0.103,0.88-0.11c0.306-0.007,0.606-0.01,0.9-0.01h3.48
		c0.173,0.027,0.356,0.05,0.55,0.07c0.193,0.02,0.37,0.063,0.53,0.13c0.106,0.04,0.21,0.093,0.31,0.16
		c0.1,0.067,0.183,0.147,0.25,0.24c0.12,0.187,0.19,0.374,0.21,0.56c0.02,0.187,0.043,0.394,0.07,0.62
		c0.026,0.373,0.04,0.743,0.04,1.11s0,0.737,0,1.11v6.56c0,0.014,0.003,0.117,0.01,0.311s0.01,0.42,0.01,0.68s0,0.533,0,0.82
		s-0.007,0.537-0.02,0.75c-0.014,0.133-0.034,0.273-0.06,0.42c-0.027,0.146-0.07,0.287-0.13,0.42s-0.144,0.254-0.25,0.36
		c-0.107,0.106-0.247,0.192-0.42,0.26c-0.227,0.093-0.454,0.14-0.68,0.14c-0.173,0-0.347-0.037-0.52-0.109
		c-0.173-0.074-0.293-0.184-0.36-0.33c-0.213-0.428-0.32-0.9-0.32-1.42v-0.881C85.073,37.538,85.066,37.378,85.066,37.218z
		 M94.126,31.248c0.201,0.007,0.394,0.017,0.58,0.03c0.066,0,0.141,0.007,0.221,0.02c0.08,0.014,0.16,0.027,0.24,0.04
		c0.266,0.053,0.482,0.164,0.649,0.33c0.167,0.167,0.25,0.39,0.25,0.67c0,0.187-0.017,0.4-0.05,0.64
		c-0.033,0.24-0.137,0.427-0.311,0.56c-0.08,0.066-0.16,0.12-0.239,0.16c-0.08,0.04-0.174,0.074-0.28,0.1
		c-0.213,0.027-0.473,0.033-0.779,0.02c-0.308-0.013-0.567-0.013-0.781,0c-0.053,0-0.08,0.033-0.08,0.1c0,0.16,0,0.351,0,0.57
		s0,0.446,0,0.68s0,0.46,0,0.68c0,0.221,0,0.417,0,0.59c0.027,0.693,0.027,1.374,0,2.041v0.279c0,0.174-0.003,0.363-0.01,0.57
		c-0.006,0.206-0.023,0.41-0.049,0.609c-0.027,0.2-0.074,0.391-0.141,0.57s-0.16,0.33-0.28,0.45c-0.159,0.187-0.373,0.28-0.64,0.28
		l-0.04-0.021c-0.32-0.013-0.577-0.106-0.771-0.28c-0.193-0.173-0.34-0.387-0.439-0.64s-0.164-0.517-0.189-0.79
		c-0.027-0.273-0.041-0.517-0.041-0.73V26.898c0-0.013,0-0.077,0-0.19s0.014-0.247,0.041-0.4c0.025-0.153,0.069-0.313,0.129-0.48
		c0.061-0.167,0.144-0.303,0.25-0.41c0.094-0.093,0.23-0.163,0.41-0.21s0.344-0.07,0.49-0.07c0.293,0,0.54,0.1,0.74,0.3
		c0.187,0.187,0.297,0.383,0.33,0.59c0.033,0.207,0.063,0.423,0.09,0.65c0.014,0.054,0.02,0.134,0.02,0.24
		c0.027,0.227,0.043,0.46,0.051,0.7c0.006,0.24,0.016,0.48,0.029,0.72c0,0.107,0,0.193,0,0.26c0,0.067,0.004,0.17,0.01,0.31
		c0.007,0.14,0.01,0.35,0.01,0.63c0,0.28,0,0.687,0,1.22v0.46C93.733,31.231,93.927,31.241,94.126,31.248z"/>
	<path fill="#FFFFFF" d="M104.106,25.518c0.826,0.453,1.394,1.04,1.7,1.76c0.333,0.76,0.46,1.66,0.38,2.7
		c-0.066,1.347-0.439,2.347-1.119,3c-0.294,0.293-0.647,0.517-1.061,0.67c-0.414,0.153-0.844,0.26-1.29,0.32
		c-0.446,0.061-0.899,0.084-1.36,0.07c-0.46-0.013-0.877-0.053-1.25-0.12c-0.133-0.027-0.267-0.057-0.4-0.09
		c-0.133-0.033-0.273-0.07-0.42-0.11c-0.279-0.12-0.58-0.28-0.899-0.48c-0.653-0.426-1.087-0.973-1.3-1.64
		c-0.24-0.653-0.36-1.333-0.36-2.04c0-0.707,0.134-1.38,0.399-2.02c0.107-0.307,0.268-0.593,0.48-0.86
		c0.213-0.267,0.467-0.506,0.76-0.72c0.453-0.387,0.98-0.667,1.58-0.84c0.587-0.173,1.174-0.227,1.76-0.16
		c0.134,0.013,0.258,0.023,0.371,0.03c0.113,0.007,0.223,0.01,0.33,0.01c0.093,0.013,0.183,0.027,0.27,0.04
		c0.086,0.013,0.176,0.033,0.27,0.06c0.188,0.054,0.36,0.107,0.521,0.16C103.626,25.325,103.84,25.411,104.106,25.518z
		 M100.467,41.277c-0.094,0-0.193-0.006-0.3-0.02c-0.094,0-0.19-0.004-0.291-0.01c-0.1-0.007-0.183-0.018-0.25-0.03
		c-0.293-0.04-0.553-0.153-0.779-0.34c-0.066-0.067-0.13-0.13-0.189-0.19c-0.061-0.06-0.117-0.143-0.17-0.25
		c-0.027-0.08-0.058-0.163-0.091-0.25c-0.033-0.086-0.063-0.177-0.09-0.27c-0.026-0.094-0.044-0.189-0.05-0.29
		c-0.007-0.101-0.01-0.184-0.01-0.25c-0.014-0.04-0.021-0.094-0.021-0.16v-0.06v-1.58v-0.641c0-0.146-0.003-0.307-0.01-0.479
		s0.003-0.347,0.03-0.52c0.026-0.174,0.07-0.334,0.129-0.48c0.061-0.146,0.164-0.273,0.311-0.38c0.12-0.093,0.277-0.167,0.471-0.22
		c0.192-0.054,0.383-0.07,0.569-0.051c0.187,0.021,0.353,0.077,0.5,0.171c0.146,0.093,0.24,0.233,0.28,0.42
		c0.04,0.106,0.061,0.21,0.061,0.31s0.006,0.21,0.02,0.33c0,0.054,0.003,0.104,0.01,0.15c0.006,0.047,0.01,0.089,0.01,0.13v0.119
		h0.1c0.027,0,0.061,0.004,0.101,0.01c0.04,0.008,0.087,0.011,0.14,0.011h7.66v-0.68c0.014-0.227,0.076-0.427,0.19-0.601
		c0.112-0.173,0.282-0.286,0.51-0.34c0.187-0.04,0.387-0.06,0.601-0.06c0.213,0,0.399,0.053,0.56,0.16
		c0.227,0.119,0.383,0.297,0.47,0.529c0.087,0.233,0.137,0.494,0.15,0.78c0.013,0.287,0.006,0.583-0.02,0.89
		c-0.027,0.308-0.034,0.587-0.021,0.841c0.013,0.253,0.017,0.566,0.01,0.939s-0.057,0.736-0.149,1.09
		c-0.094,0.354-0.24,0.653-0.44,0.9c-0.2,0.246-0.493,0.369-0.88,0.369H100.467z M103.827,30.218c0-0.307-0.021-0.593-0.061-0.86
		c-0.014-0.227-0.066-0.46-0.16-0.7c-0.053-0.12-0.106-0.23-0.16-0.33c-0.053-0.1-0.133-0.19-0.24-0.27
		c-0.08-0.093-0.18-0.173-0.299-0.24c-0.121-0.066-0.254-0.133-0.4-0.2c-0.28-0.106-0.613-0.16-1-0.16
		c-0.188,0-0.367,0.017-0.54,0.05c-0.173,0.034-0.333,0.083-0.479,0.15c-0.294,0.12-0.574,0.313-0.841,0.58
		c-0.227,0.253-0.373,0.587-0.44,1c-0.039,0.333-0.033,0.627,0.021,0.88c0.026,0.293,0.12,0.554,0.28,0.78
		c0.066,0.12,0.152,0.227,0.26,0.32c0.106,0.094,0.233,0.187,0.38,0.28c0.24,0.146,0.58,0.253,1.021,0.32
		c0.146,0.013,0.289,0.02,0.43,0.02s0.283-0.013,0.43-0.04c0.293-0.04,0.547-0.126,0.76-0.26c0.134-0.053,0.254-0.12,0.36-0.2
		s0.206-0.173,0.3-0.28C103.634,30.792,103.76,30.511,103.827,30.218z M108.167,39.398c0.213,0,0.35-0.041,0.41-0.121
		c0.06-0.08,0.09-0.267,0.09-0.56c-0.014-0.213-0.094-0.33-0.24-0.351c-0.146-0.02-0.313-0.029-0.5-0.029h-0.54h-0.899h-1.561
		c-0.427-0.014-0.859-0.017-1.301-0.01c-0.439,0.007-0.873,0.01-1.299,0.01c-0.107,0-0.25-0.003-0.431-0.01
		c-0.18-0.007-0.363-0.007-0.55,0c-0.188,0.007-0.354,0.029-0.5,0.07c-0.146,0.039-0.227,0.1-0.24,0.18
		c-0.039,0.307-0.007,0.516,0.1,0.63c0.107,0.112,0.301,0.163,0.58,0.149c0.293,0,0.58,0.01,0.86,0.03s0.573,0.023,0.88,0.011
		c0.733-0.027,1.414-0.034,2.041-0.021c0.626,0.013,1.299,0.021,2.02,0.021H108.167z M111.106,32.718
		c-0.027,0.107-0.047,0.197-0.06,0.27c-0.014,0.074-0.034,0.144-0.06,0.21c-0.027,0.067-0.055,0.127-0.08,0.18
		c-0.027,0.053-0.055,0.113-0.08,0.18c-0.08,0.147-0.193,0.254-0.34,0.32c-0.188,0.12-0.367,0.18-0.541,0.18
		c-0.227,0-0.453-0.086-0.68-0.26c-0.08-0.04-0.15-0.097-0.21-0.17s-0.11-0.15-0.149-0.23c-0.107-0.2-0.168-0.427-0.181-0.68
		c-0.013-0.04-0.021-0.187-0.021-0.44c0-0.253,0-0.563,0-0.93c0-0.366,0-0.767,0-1.2s0-0.847,0-1.24c0-0.393,0-0.74,0-1.04
		c0-0.3,0-0.497,0-0.59v-0.72c0-0.173,0.021-0.32,0.061-0.44c0.04-0.2,0.16-0.42,0.359-0.66c0.107-0.12,0.261-0.213,0.461-0.28
		c0.199-0.053,0.406-0.073,0.619-0.06c0.227,0.04,0.404,0.11,0.531,0.21c0.126,0.1,0.216,0.224,0.27,0.37
		c0.053,0.147,0.083,0.31,0.09,0.49c0.006,0.18,0.01,0.37,0.01,0.57V32.718z"/>
	<path fill="#FFFFFF" d="M121.587,26.878c0.266,0.08,0.473,0.253,0.619,0.52c0.094,0.173,0.127,0.39,0.1,0.65
		c-0.026,0.26-0.106,0.477-0.239,0.65c-0.134,0.16-0.341,0.273-0.62,0.34c-0.279,0.066-0.573,0.11-0.88,0.13
		c-0.308,0.02-0.591,0.023-0.851,0.01c-0.26-0.013-0.437-0.02-0.529-0.02c-0.107,0.014-0.211,0.02-0.311,0.02s-0.209,0-0.33,0h-0.64
		c-0.106-0.013-0.21-0.02-0.31-0.02c-0.101,0-0.203,0-0.311,0l-2.359-0.04c-0.681,0-1.168-0.086-1.461-0.26s-0.467-0.447-0.52-0.82
		c-0.053-0.387,0.047-0.7,0.3-0.94c0.187-0.16,0.343-0.26,0.47-0.3s0.291-0.06,0.49-0.06c0.053,0,0.107,0.003,0.16,0.01
		s0.106,0.01,0.16,0.01h0.5c0.187,0,0.406-0.003,0.66-0.01c0.253-0.007,0.473-0.017,0.66-0.03c0-0.053,0.003-0.13,0.01-0.23
		c0.006-0.1,0.014-0.203,0.02-0.31c0.007-0.106,0.014-0.21,0.021-0.31c0.007-0.1,0.01-0.17,0.01-0.21
		c0.026-0.227,0.101-0.433,0.22-0.62c0.28-0.387,0.627-0.567,1.041-0.54c0.186,0.027,0.373,0.057,0.559,0.09
		c0.188,0.033,0.341,0.13,0.461,0.29c0.146,0.213,0.217,0.503,0.21,0.87s0.003,0.697,0.03,0.99h0.58c0.105,0,0.26,0.003,0.459,0.01
		c0.201,0.007,0.354,0.01,0.461,0.01h0.359C121.053,26.758,121.319,26.798,121.587,26.878z M117.986,29.958
		c0.72,0.027,1.327,0.2,1.819,0.52c0.494,0.32,0.894,0.733,1.201,1.24c0.307,0.507,0.52,1.08,0.64,1.72s0.17,1.287,0.149,1.94
		c-0.02,0.653-0.113,1.294-0.279,1.92c-0.167,0.627-0.384,1.181-0.65,1.66c-0.293,0.521-0.703,0.917-1.23,1.19
		c-0.526,0.272-1.09,0.43-1.689,0.469c-0.6,0.041-1.189-0.039-1.77-0.239s-1.07-0.514-1.471-0.94
		c-0.347-0.373-0.594-0.763-0.74-1.17c-0.146-0.406-0.253-0.856-0.319-1.35c-0.067-0.493-0.12-0.97-0.16-1.43
		s-0.047-0.917-0.021-1.37c0.027-0.454,0.104-0.9,0.23-1.34s0.323-0.88,0.59-1.32c0.146-0.253,0.354-0.477,0.62-0.67
		s0.566-0.354,0.899-0.48c0.334-0.126,0.69-0.22,1.07-0.28C117.257,29.968,117.626,29.945,117.986,29.958z M117.906,38.418
		c0.293-0.04,0.546-0.156,0.761-0.35c0.213-0.193,0.386-0.424,0.52-0.69c0.133-0.267,0.227-0.554,0.279-0.86
		c0.054-0.306,0.08-0.593,0.08-0.859c0-0.227-0.01-0.483-0.029-0.771c-0.021-0.286-0.057-0.566-0.11-0.84
		c-0.054-0.273-0.14-0.526-0.26-0.76s-0.28-0.423-0.479-0.57c-0.188-0.12-0.408-0.196-0.66-0.23
		c-0.254-0.033-0.511-0.023-0.771,0.03c-0.261,0.053-0.497,0.143-0.71,0.27c-0.213,0.126-0.367,0.297-0.46,0.51
		c-0.253,0.547-0.384,1.094-0.39,1.641c-0.008,0.547,0.049,1.106,0.17,1.679c0.066,0.294,0.16,0.598,0.279,0.91
		c0.12,0.314,0.307,0.558,0.561,0.73c0.053,0.04,0.137,0.07,0.25,0.09s0.232,0.037,0.359,0.051c0.127,0.013,0.247,0.023,0.36,0.029
		C117.77,38.435,117.853,38.432,117.906,38.418z M127.347,31.418c0.066,0,0.129,0.007,0.189,0.02s0.123,0.02,0.189,0.02
		c0.067,0.013,0.141,0.023,0.221,0.03c0.08,0.007,0.16,0.017,0.24,0.03c0.146,0.027,0.293,0.077,0.439,0.15s0.254,0.183,0.32,0.33
		c0.094,0.146,0.141,0.32,0.141,0.52c0,0.106-0.004,0.203-0.011,0.29c-0.007,0.087-0.023,0.184-0.05,0.29
		c-0.027,0.107-0.057,0.22-0.09,0.34c-0.033,0.12-0.098,0.213-0.19,0.28c-0.187,0.133-0.366,0.22-0.54,0.26
		c-0.213,0.027-0.473,0.034-0.779,0.02c-0.307-0.013-0.567-0.013-0.78,0c-0.014,0-0.026,0.007-0.04,0.021h-0.02l-0.021,0.02v0.06
		c-0.014,0.334-0.017,0.721-0.011,1.16c0.008,0.44,0.011,0.834,0.011,1.18c0.026,0.693,0.026,1.374,0,2.041v0.279
		c0,0.174-0.003,0.363-0.011,0.57c-0.006,0.206-0.023,0.41-0.049,0.609c-0.027,0.2-0.074,0.391-0.141,0.57s-0.16,0.33-0.279,0.45
		c-0.16,0.187-0.374,0.28-0.641,0.28l-0.04-0.021c-0.319-0.013-0.577-0.106-0.771-0.28c-0.193-0.173-0.34-0.387-0.439-0.64
		s-0.164-0.517-0.189-0.79c-0.027-0.273-0.041-0.517-0.041-0.73V26.898c0-0.013,0-0.077,0-0.19s0.014-0.247,0.041-0.4
		c0.025-0.153,0.069-0.313,0.129-0.48c0.061-0.167,0.144-0.303,0.25-0.41c0.094-0.093,0.23-0.163,0.41-0.21s0.344-0.07,0.49-0.07
		c0.293,0,0.54,0.1,0.74,0.3c0.187,0.187,0.297,0.383,0.33,0.59c0.033,0.207,0.063,0.423,0.09,0.65
		c0.014,0.054,0.02,0.134,0.02,0.24c0.027,0.227,0.043,0.46,0.051,0.7c0.006,0.24,0.016,0.48,0.029,0.72
		c0,0.147,0.004,0.29,0.01,0.43c0.008,0.14,0.011,0.283,0.011,0.43c-0.014,0.08-0.017,0.157-0.011,0.23
		c0.008,0.074,0.011,0.144,0.011,0.21v1.3c0,0.067,0,0.14,0,0.22s0.013,0.154,0.04,0.22c0,0.013,0.066,0.02,0.199,0.02
		c0.134,0,0.207,0,0.221,0c0.12,0.027,0.213,0.033,0.279,0.02H127.347z"/>
	<path fill="#FFFFFF" d="M134.866,37.218c0-0.16,0-0.319,0-0.479v-6.36c0-0.213,0-0.427,0-0.64c0-0.213-0.014-0.433-0.041-0.66
		c-0.013-0.066-0.029-0.16-0.049-0.28c-0.021-0.12-0.064-0.193-0.131-0.22c-0.066-0.04-0.143-0.056-0.229-0.05
		c-0.087,0.007-0.17,0.003-0.25-0.01c-0.094-0.013-0.184-0.013-0.271,0c-0.086,0.013-0.176,0.013-0.27,0h-0.939
		c-0.228,0.013-0.454,0.013-0.681,0c-0.228-0.013-0.454-0.013-0.681,0c-0.105,0.013-0.203,0.017-0.289,0.01
		c-0.087-0.006-0.184-0.01-0.29-0.01c-0.147,0-0.3-0.007-0.46-0.02s-0.307-0.067-0.44-0.16c-0.187-0.133-0.313-0.3-0.38-0.5
		s-0.1-0.407-0.1-0.62c-0.014-0.253,0.039-0.506,0.16-0.76c0.066-0.16,0.152-0.273,0.26-0.34c0.066-0.066,0.163-0.123,0.289-0.17
		c0.127-0.046,0.237-0.083,0.33-0.11c0.281-0.066,0.574-0.103,0.881-0.11s0.606-0.01,0.9-0.01h3.479
		c0.173,0.027,0.356,0.05,0.55,0.07c0.193,0.02,0.37,0.063,0.53,0.13c0.106,0.04,0.21,0.093,0.31,0.16
		c0.1,0.067,0.184,0.147,0.25,0.24c0.12,0.187,0.19,0.374,0.211,0.56c0.02,0.187,0.043,0.394,0.069,0.62
		c0.026,0.373,0.04,0.743,0.04,1.11s0,0.737,0,1.11v6.56c0,0.014,0.003,0.117,0.01,0.311s0.01,0.42,0.01,0.68s0,0.533,0,0.82
		s-0.006,0.537-0.02,0.75c-0.014,0.133-0.033,0.273-0.061,0.42c-0.026,0.146-0.069,0.287-0.129,0.42
		c-0.061,0.133-0.145,0.254-0.25,0.36c-0.107,0.106-0.248,0.192-0.42,0.26c-0.228,0.093-0.454,0.14-0.681,0.14
		c-0.173,0-0.347-0.037-0.521-0.109c-0.173-0.074-0.293-0.184-0.359-0.33c-0.213-0.428-0.32-0.9-0.32-1.42v-0.881
		C134.872,37.538,134.866,37.378,134.866,37.218z M144.325,39.658c-0.026,0.16-0.047,0.316-0.059,0.47
		c-0.014,0.153-0.047,0.31-0.101,0.47c-0.026,0.053-0.047,0.1-0.06,0.141c-0.014,0.039-0.034,0.086-0.061,0.14
		c-0.094,0.187-0.213,0.333-0.359,0.44c-0.308,0.186-0.647,0.232-1.021,0.14c-0.214-0.04-0.388-0.12-0.521-0.24
		c-0.119-0.106-0.209-0.243-0.27-0.41s-0.107-0.329-0.141-0.489s-0.049-0.301-0.049-0.42c0-0.121,0-0.188,0-0.201V27.338
		c0-0.16,0-0.333,0-0.52c0-0.187,0.013-0.373,0.039-0.56c0.027-0.187,0.066-0.36,0.12-0.52s0.127-0.287,0.22-0.38
		c0.146-0.146,0.301-0.237,0.461-0.27s0.332-0.05,0.52-0.05c0.227,0,0.437,0.063,0.63,0.19c0.193,0.126,0.33,0.303,0.41,0.53
		c0.12,0.28,0.187,0.573,0.2,0.88c0.013,0.307,0.026,0.614,0.039,0.92v0.1c0.027,1.027,0.033,2.08,0.021,3.16s-0.021,2.1-0.021,3.06
		v5.06c0,0.12,0.004,0.24,0.011,0.36S144.339,39.538,144.325,39.658z"/>
</g>
</svg>
