<?xml version="1.0" encoding="utf-8"?>
<!-- Generator: Adobe Illustrator 15.0.0, SVG Export Plug-In . SVG Version: 6.00 Build 0)  -->
<!DOCTYPE svg PUBLIC "-//W3C//DTD SVG 1.0//EN" "http://www.w3.org/TR/2001/REC-SVG-20010904/DTD/svg10.dtd">
<svg version="1.0" id="Layer_1" xmlns="http://www.w3.org/2000/svg" xmlns:xlink="http://www.w3.org/1999/xlink" x="0px" y="0px"
	 width="186px" height="66px" viewBox="0 0 186 66" enable-background="new 0 0 186 66" xml:space="preserve">
<g>
	<path fill="#FFFFFF" d="M42.227,37.436c0.173,0.12,0.296,0.28,0.37,0.48c0.073,0.199,0.103,0.406,0.09,0.619
		c-0.013,0.214-0.07,0.414-0.17,0.601s-0.244,0.327-0.43,0.42c-0.293,0.16-0.6,0.267-0.92,0.319c-0.32,0.054-0.633,0.08-0.94,0.08
		h-0.82c-0.374,0.014-0.744,0.014-1.11,0c-0.367-0.013-0.737-0.013-1.11,0h-0.34c-0.227,0-0.463-0.006-0.71-0.02
		c-0.247-0.014-0.494-0.047-0.74-0.1c-0.247-0.054-0.477-0.131-0.69-0.23c-0.213-0.1-0.387-0.236-0.52-0.41
		c-0.133-0.16-0.233-0.369-0.3-0.629c-0.067-0.261-0.114-0.518-0.14-0.771c-0.027-0.253-0.04-0.474-0.04-0.66s0-0.293,0-0.319
		v-9.441c0-0.013,0-0.073,0-0.18c0-0.106,0.006-0.223,0.02-0.35c0.013-0.126,0.033-0.253,0.06-0.38c0.026-0.126,0.06-0.23,0.1-0.31
		c0.12-0.187,0.24-0.327,0.36-0.42s0.28-0.153,0.48-0.18c0.053-0.013,0.117-0.02,0.19-0.02s0.15-0.006,0.23-0.02
		c0.08,0,0.173-0.006,0.28-0.02h4.68h0.24c0.066,0,0.136,0.003,0.21,0.01c0.073,0.007,0.143,0.003,0.21-0.01h0.04
		c0.133,0,0.26,0.007,0.38,0.02c0.12,0.014,0.24,0.04,0.36,0.08c0.12,0.027,0.24,0.06,0.36,0.1c0.12,0.04,0.227,0.113,0.32,0.22
		c0.16,0.174,0.26,0.394,0.3,0.66c0.027,0.107,0.043,0.207,0.05,0.3c0.006,0.094-0.003,0.194-0.03,0.3
		c-0.04,0.28-0.15,0.523-0.33,0.73c-0.18,0.207-0.423,0.31-0.73,0.31h-5.04v1.74v0.36v0.8c0.213,0.013,0.41,0.02,0.59,0.02
		c0.18,0,0.343,0,0.49,0c0.16,0,0.307-0.007,0.44-0.02h1.94c0.066,0,0.133,0.003,0.2,0.01c0.067,0.007,0.133,0.003,0.2-0.01h0.54
		c0.146,0,0.296,0.013,0.45,0.04s0.297,0.08,0.43,0.16c0.2,0.12,0.327,0.297,0.38,0.53c0.053,0.233,0.067,0.457,0.04,0.67
		c0,0.107-0.003,0.213-0.01,0.32c-0.007,0.107-0.043,0.2-0.11,0.28c-0.16,0.227-0.32,0.363-0.48,0.41
		c-0.16,0.047-0.333,0.07-0.52,0.07h-2.4c-0.08,0.013-0.18,0.02-0.3,0.02h-0.82c-0.173,0-0.347,0-0.52,0s-0.347-0.007-0.52-0.02
		c0.013,0.533,0.013,1,0,1.4c-0.013,0.399-0.02,0.606-0.02,0.619v0.721c0,0.187,0.013,0.35,0.04,0.49
		c0.027,0.14,0.053,0.217,0.08,0.229c0.093,0.054,0.247,0.093,0.46,0.12s0.447,0.04,0.7,0.04h0.08c0.44-0.013,0.88-0.013,1.32,0
		h0.98c0.04,0,0.083,0,0.13,0s0.097-0.007,0.15-0.021h0.34c0.213,0,0.427,0.008,0.64,0.021c0.213,0.013,0.426,0.054,0.64,0.12
		c0.04,0.014,0.077,0.027,0.11,0.039C42.15,37.389,42.187,37.409,42.227,37.436z M47.787,30.996c0.066,0,0.13,0.007,0.19,0.02
		c0.06,0.014,0.123,0.02,0.19,0.02c0.066,0.014,0.14,0.023,0.22,0.03c0.08,0.007,0.16,0.017,0.24,0.03
		c0.146,0.027,0.293,0.077,0.44,0.15c0.146,0.074,0.253,0.184,0.32,0.33c0.093,0.147,0.14,0.32,0.14,0.52
		c0,0.107-0.003,0.204-0.01,0.29c-0.007,0.087-0.023,0.184-0.05,0.29c-0.027,0.107-0.057,0.22-0.09,0.34s-0.097,0.213-0.19,0.28
		c-0.187,0.133-0.367,0.22-0.54,0.26c-0.213,0.027-0.473,0.034-0.78,0.02c-0.307-0.013-0.567-0.013-0.78,0
		c-0.013,0-0.027,0.007-0.04,0.02h-0.02l-0.02,0.02v0.06c0,0.16,0,0.354,0,0.58s0,0.457,0,0.689c0,0.234,0,0.461,0,0.68
		c0,0.221,0,0.418,0,0.591c0.027,0.693,0.027,1.374,0,2.04v0.279c0,0.174-0.003,0.363-0.01,0.57c-0.007,0.207-0.023,0.41-0.05,0.61
		c-0.027,0.2-0.074,0.39-0.14,0.569c-0.067,0.181-0.16,0.33-0.28,0.451c-0.16,0.186-0.373,0.279-0.64,0.279l-0.04-0.02
		c-0.32-0.014-0.577-0.107-0.77-0.28c-0.193-0.173-0.34-0.388-0.44-0.64c-0.1-0.254-0.164-0.518-0.19-0.791
		c-0.027-0.273-0.04-0.516-0.04-0.729v-11.88c0-0.013,0-0.077,0-0.19s0.013-0.247,0.04-0.4c0.026-0.153,0.07-0.313,0.13-0.48
		c0.06-0.167,0.143-0.303,0.25-0.41c0.093-0.093,0.23-0.163,0.41-0.21c0.18-0.047,0.343-0.07,0.49-0.07c0.293,0,0.54,0.1,0.74,0.3
		c0.187,0.187,0.297,0.383,0.33,0.59c0.033,0.207,0.063,0.423,0.09,0.65c0.013,0.054,0.02,0.134,0.02,0.24
		c0.026,0.227,0.043,0.46,0.05,0.7c0.006,0.24,0.017,0.48,0.03,0.72c0,0.147,0.003,0.29,0.01,0.43c0.006,0.14,0.01,0.283,0.01,0.43
		c-0.013,0.08-0.017,0.157-0.01,0.23c0.006,0.074,0.01,0.144,0.01,0.21v1.1c0,0.067,0,0.14,0,0.22s0.013,0.153,0.04,0.22
		c0,0.014,0.067,0.02,0.2,0.02s0.207,0,0.22,0c0.12,0.027,0.213,0.034,0.28,0.02H47.787z"/>
	<path fill="#FFFFFF" d="M57.567,25.316c0.8,0.427,1.37,1.013,1.71,1.76c0.34,0.747,0.47,1.64,0.39,2.68
		c-0.08,1.333-0.457,2.327-1.13,2.98c-0.674,0.653-1.704,0.98-3.09,0.98c-0.36,0-0.69,0.003-0.99,0.01
		c-0.3,0.007-0.583-0.01-0.85-0.05c-0.267-0.04-0.54-0.11-0.82-0.21c-0.28-0.1-0.58-0.257-0.9-0.47
		c-0.626-0.413-1.057-0.953-1.29-1.62c-0.234-0.667-0.35-1.353-0.35-2.06c0-0.707,0.126-1.37,0.38-1.99
		c0.253-0.62,0.667-1.15,1.24-1.59c0.467-0.373,0.99-0.646,1.57-0.82c0.58-0.173,1.163-0.233,1.75-0.18
		c0.267,0.027,0.497,0.05,0.69,0.07c0.193,0.02,0.376,0.05,0.55,0.09s0.347,0.094,0.52,0.16
		C57.12,25.123,57.327,25.209,57.567,25.316z M51.887,40.656c-0.013,0-0.033-0.014-0.06-0.041c-0.134-0.106-0.224-0.264-0.27-0.47
		c-0.047-0.206-0.07-0.384-0.07-0.53c-0.013-0.24-0.03-0.479-0.05-0.72c-0.02-0.239-0.03-0.474-0.03-0.7c0-0.346,0-0.686,0-1.02
		c0-0.333,0.033-0.666,0.1-1c0.04-0.213,0.106-0.383,0.2-0.51c0.093-0.127,0.24-0.23,0.44-0.311c0.373-0.146,0.747-0.22,1.12-0.22
		h9.22c0.253,0.013,0.513,0.033,0.78,0.06c0.267,0.027,0.52,0.094,0.76,0.2c0.267,0.106,0.443,0.284,0.53,0.53
		c0.086,0.246,0.143,0.504,0.17,0.77c0.013,0.227,0.023,0.49,0.03,0.791c0.007,0.299,0.003,0.604-0.01,0.909
		c-0.014,0.307-0.034,0.61-0.06,0.91c-0.027,0.3-0.074,0.569-0.14,0.81c-0.04,0.146-0.087,0.277-0.14,0.391s-0.16,0.196-0.32,0.25
		c-0.147,0.053-0.297,0.086-0.45,0.1s-0.303,0.02-0.45,0.02l-10.22-0.039c-0.173-0.014-0.36-0.02-0.56-0.02
		C52.207,40.816,52.034,40.762,51.887,40.656z M57.287,29.976c0-0.293-0.014-0.57-0.04-0.83c-0.027-0.26-0.083-0.5-0.17-0.72
		c-0.087-0.22-0.217-0.417-0.39-0.59c-0.173-0.173-0.4-0.313-0.68-0.42c-0.307-0.106-0.64-0.16-1-0.16s-0.7,0.063-1.02,0.19
		c-0.32,0.127-0.6,0.32-0.84,0.58c-0.24,0.26-0.394,0.597-0.46,1.01c-0.04,0.28-0.037,0.563,0.01,0.85s0.146,0.547,0.3,0.78
		c0.153,0.233,0.366,0.43,0.64,0.59c0.273,0.16,0.617,0.26,1.03,0.3c0.28,0.027,0.56,0.023,0.84-0.01
		c0.28-0.033,0.54-0.11,0.78-0.23c0.24-0.12,0.446-0.29,0.62-0.51S57.207,30.309,57.287,29.976z M53.787,38.316
		c0,0.066,0.003,0.129,0.01,0.189s0.03,0.104,0.07,0.13c0.027,0.026,0.07,0.043,0.13,0.05s0.123,0.01,0.19,0.01
		c0.066,0,0.146-0.006,0.24-0.02h6.06c0.187,0.014,0.367,0.026,0.54,0.04c0.146,0.013,0.3,0.021,0.46,0.021
		c0.16,0,0.307-0.014,0.44-0.041c0.133-0.014,0.213-0.05,0.24-0.109c0.026-0.061,0.046-0.15,0.06-0.27
		c0.013-0.107,0.02-0.23,0.02-0.371c0-0.14-0.04-0.263-0.12-0.369c-0.093-0.107-0.224-0.164-0.39-0.17
		c-0.167-0.008-0.317-0.004-0.45,0.01h-5.36c-0.293-0.027-0.58-0.037-0.86-0.03c-0.28,0.007-0.567,0.017-0.86,0.03
		c-0.107,0-0.19,0.003-0.25,0.01s-0.104,0.07-0.13,0.189c-0.027,0.094-0.04,0.184-0.04,0.271s0,0.17,0,0.25
		c0.013,0.026,0.017,0.054,0.01,0.08S53.787,38.275,53.787,38.316z M64.847,32.696c-0.027,0.187-0.06,0.34-0.1,0.46
		s-0.1,0.243-0.18,0.37c-0.08,0.126-0.187,0.23-0.32,0.31c-0.187,0.107-0.374,0.16-0.56,0.16c-0.227,0-0.447-0.073-0.66-0.22
		c-0.147-0.107-0.26-0.247-0.34-0.42c-0.107-0.2-0.177-0.42-0.21-0.66c-0.034-0.24-0.054-0.487-0.06-0.74
		c-0.007-0.253-0.003-0.503,0.01-0.75c0.013-0.247,0.02-0.483,0.02-0.71c0.013-0.573,0.02-1.143,0.02-1.71c0-0.566,0-1.13,0-1.69
		v-0.26c-0.013-0.146-0.017-0.303-0.01-0.47c0.006-0.167,0.03-0.323,0.07-0.47c0.053-0.2,0.173-0.413,0.36-0.64
		c0.107-0.133,0.257-0.23,0.45-0.29s0.403-0.077,0.63-0.05c0.4,0.067,0.667,0.24,0.8,0.52c0.08,0.173,0.116,0.387,0.11,0.64
		c-0.007,0.253-0.017,0.407-0.03,0.46V32.696z"/>
	<path fill="#FFFFFF" d="M69.906,34.236c-0.133,0.026-0.227,0.076-0.28,0.149c-0.054,0.073-0.087,0.16-0.1,0.26
		c-0.014,0.101-0.014,0.204,0,0.31c0.013,0.107,0.02,0.207,0.02,0.301c0,0.174,0,0.416,0,0.73c0,0.313,0.013,0.563,0.04,0.75
		c0,0.093-0.003,0.213-0.01,0.359s0.023,0.254,0.09,0.32c0,0.026,0.013,0.047,0.04,0.06c0.027,0.014,0.053,0.021,0.08,0.021
		c0.146,0,0.33,0.003,0.55,0.01c0.22,0.007,0.443,0.01,0.67,0.01c0.227,0,0.45,0,0.67,0s0.403-0.006,0.55-0.02
		c0.467,0,0.957-0.01,1.47-0.03c0.513-0.021,1.003-0.011,1.47,0.03c0.187,0.026,0.33,0.076,0.43,0.149s0.183,0.163,0.25,0.271
		c0.08,0.106,0.133,0.197,0.16,0.27c0.026,0.074,0.04,0.184,0.04,0.33c0.026,0.16,0.017,0.313-0.03,0.46
		c-0.047,0.146-0.104,0.267-0.17,0.36c-0.067,0.08-0.144,0.15-0.23,0.21c-0.087,0.06-0.184,0.123-0.29,0.19
		c-0.267,0.133-0.53,0.195-0.79,0.189c-0.26-0.007-0.53,0.003-0.81,0.029c-0.24,0-0.513,0.008-0.82,0.021s-0.587,0.007-0.84-0.021
		c-0.107-0.013-0.237-0.02-0.39-0.02s-0.313,0-0.48,0c-0.167,0-0.327,0.004-0.48,0.01c-0.153,0.007-0.277,0.01-0.37,0.01
		c-0.187-0.026-0.367-0.033-0.54-0.02s-0.354,0.02-0.54,0.02c-0.32-0.026-0.64-0.063-0.96-0.109c-0.32-0.047-0.613-0.164-0.88-0.35
		c-0.107-0.067-0.193-0.15-0.26-0.25c-0.066-0.101-0.12-0.203-0.16-0.311c-0.173-0.373-0.24-0.767-0.2-1.18
		c0.013-0.32,0.017-0.617,0.01-0.891c-0.007-0.272-0.014-0.546-0.02-0.819c-0.007-0.273-0.014-0.554-0.02-0.841
		c-0.007-0.286-0.01-0.596-0.01-0.93c0-0.253-0.003-0.56-0.01-0.92c-0.007-0.36,0.05-0.646,0.17-0.86c0.12-0.2,0.253-0.35,0.4-0.45
		c0.146-0.1,0.303-0.167,0.47-0.2c0.167-0.033,0.34-0.05,0.52-0.05c0.18,0,0.363,0,0.55,0h2.04c0.16,0,0.38-0.003,0.66-0.01
		c0.28-0.006,0.506-0.03,0.68-0.07c0.12-0.067,0.2-0.153,0.24-0.26c0.066-0.36,0.103-0.743,0.11-1.15s-0.003-0.79-0.03-1.15
		c0-0.146,0-0.34,0-0.58s-0.04-0.42-0.12-0.54c-0.093-0.146-0.3-0.22-0.62-0.22l-3.72,0.06c-0.187,0-0.394-0.026-0.62-0.08
		c-0.227-0.053-0.4-0.153-0.52-0.3c-0.04-0.066-0.08-0.133-0.12-0.2s-0.08-0.153-0.12-0.26c-0.107-0.387-0.077-0.73,0.09-1.03
		c0.167-0.3,0.437-0.497,0.81-0.59c0.32-0.066,0.64-0.09,0.96-0.07c0.32,0.02,0.64,0.017,0.96-0.01h3.02c0.267,0,0.54,0,0.82,0
		s0.553,0.04,0.82,0.12c0.293,0.107,0.533,0.32,0.72,0.64c0.026,0.067,0.046,0.127,0.06,0.18c0.013,0.053,0.033,0.126,0.06,0.22
		c0.026,0.067,0.046,0.127,0.06,0.18c0.013,0.053,0.02,0.113,0.02,0.18c0.026,0.227,0.04,0.503,0.04,0.83c0,0.327,0,0.597,0,0.81
		c0,0.44,0.007,0.88,0.02,1.32c0.013,0.44,0.02,0.887,0.02,1.34c0,0.467-0.003,0.894-0.01,1.28c-0.007,0.387-0.07,0.733-0.19,1.04
		c-0.133,0.28-0.32,0.46-0.56,0.54c-0.227,0.107-0.474,0.156-0.74,0.15c-0.267-0.007-0.513-0.01-0.74-0.01c-0.147,0-0.33,0-0.55,0
		c-0.22,0-0.443,0.003-0.67,0.01c-0.227,0.006-0.44,0.01-0.64,0.01c-0.2,0-0.36,0-0.48,0c-0.107,0-0.184,0-0.23,0
		c-0.047,0-0.09,0-0.13,0s-0.083,0.004-0.13,0.01C70.089,34.192,70.013,34.209,69.906,34.236z M80.766,31.216
		c0.067,0,0.13,0.007,0.19,0.02c0.06,0.013,0.124,0.02,0.19,0.02c0.066,0.013,0.14,0.023,0.22,0.03c0.08,0.007,0.16,0.017,0.24,0.03
		c0.146,0.027,0.293,0.077,0.44,0.15c0.146,0.073,0.253,0.183,0.32,0.33c0.093,0.146,0.14,0.32,0.14,0.52
		c0,0.106-0.003,0.203-0.01,0.29c-0.007,0.087-0.023,0.184-0.05,0.29c-0.027,0.107-0.057,0.22-0.09,0.34
		c-0.034,0.12-0.097,0.213-0.19,0.28c-0.187,0.133-0.367,0.22-0.54,0.26c-0.214,0.027-0.474,0.033-0.78,0.02s-0.567-0.013-0.78,0
		c-0.014,0-0.027,0.007-0.04,0.02h-0.02l-0.02,0.02v0.06c-0.014,0.333-0.017,0.718-0.01,1.15s0.01,0.823,0.01,1.17
		c0.026,0.693,0.026,1.374,0,2.04v0.279c0,0.174-0.003,0.363-0.01,0.57s-0.023,0.41-0.05,0.61c-0.027,0.2-0.073,0.39-0.14,0.569
		c-0.067,0.181-0.16,0.33-0.28,0.451c-0.16,0.186-0.374,0.279-0.64,0.279l-0.04-0.02c-0.32-0.014-0.577-0.107-0.77-0.28
		s-0.34-0.388-0.44-0.64c-0.1-0.254-0.164-0.518-0.19-0.791c-0.027-0.273-0.04-0.516-0.04-0.729v-11.88c0-0.013,0-0.077,0-0.19
		s0.013-0.247,0.04-0.4c0.026-0.153,0.07-0.313,0.13-0.48c0.06-0.167,0.143-0.303,0.25-0.41c0.093-0.093,0.23-0.163,0.41-0.21
		s0.343-0.07,0.49-0.07c0.293,0,0.54,0.1,0.74,0.3c0.187,0.187,0.296,0.383,0.33,0.59c0.033,0.207,0.063,0.423,0.09,0.65
		c0.013,0.054,0.02,0.134,0.02,0.24c0.026,0.227,0.043,0.46,0.05,0.7c0.007,0.24,0.017,0.48,0.03,0.72c0,0.067,0,0.147,0,0.24
		c0,0.094,0.003,0.234,0.01,0.42s0.01,0.437,0.01,0.75s0,0.717,0,1.21c0,0.067,0,0.14,0,0.22s0.013,0.153,0.04,0.22
		c0,0.013,0.066,0.02,0.2,0.02s0.207,0,0.22,0c0.12,0.027,0.213,0.033,0.28,0.02H80.766z"/>
	<path fill="#FFFFFF" d="M90.506,25.355c0.813,0.467,1.393,1.067,1.74,1.8c0.173,0.36,0.286,0.76,0.34,1.2
		c0.053,0.44,0.066,0.934,0.04,1.48c-0.04,0.6-0.173,1.14-0.4,1.62c-0.227,0.48-0.523,0.89-0.89,1.23
		c-0.367,0.34-0.797,0.6-1.29,0.78c-0.494,0.18-1.02,0.27-1.58,0.27h-1.02c-0.133,0-0.267-0.003-0.4-0.01
		c-0.133-0.006-0.273-0.023-0.42-0.05c-0.147,0-0.287-0.02-0.42-0.06c-0.134-0.04-0.273-0.073-0.42-0.1
		c-0.146-0.066-0.29-0.14-0.43-0.22c-0.14-0.08-0.304-0.173-0.49-0.28c-0.613-0.4-1.04-0.94-1.28-1.62
		c-0.107-0.306-0.187-0.633-0.24-0.98c-0.053-0.346-0.08-0.687-0.08-1.02c0-0.36,0.03-0.707,0.09-1.04
		c0.06-0.333,0.163-0.653,0.31-0.96c0.106-0.32,0.267-0.603,0.48-0.85c0.213-0.247,0.453-0.483,0.72-0.71
		c0.24-0.2,0.487-0.37,0.74-0.51c0.253-0.14,0.533-0.25,0.84-0.33c0.267-0.106,0.553-0.173,0.86-0.2s0.6-0.027,0.88,0
		c0.146,0.04,0.27,0.063,0.37,0.07c0.1,0.007,0.197,0.01,0.29,0.01c0.107,0.027,0.203,0.043,0.29,0.05s0.17,0.03,0.25,0.07
		c0.093,0.027,0.183,0.05,0.27,0.07c0.086,0.02,0.17,0.05,0.25,0.09c0.08,0.027,0.173,0.06,0.28,0.1
		C90.293,25.296,90.399,25.329,90.506,25.355z M97.187,38.476c0.187,0,0.34,0.08,0.46,0.24c0.119,0.159,0.199,0.353,0.24,0.58
		c0.026,0.267,0.013,0.483-0.041,0.649c-0.053,0.167-0.133,0.324-0.239,0.471c-0.2,0.173-0.374,0.279-0.521,0.32
		c-0.066,0-0.127,0.013-0.18,0.039c-0.053,0.027-0.127,0.041-0.22,0.041h-1.44h-2.5h-2.74h-2.18h-0.92
		c-0.28,0-0.523-0.008-0.73-0.021c-0.207-0.014-0.39-0.06-0.55-0.14c-0.147-0.08-0.264-0.197-0.35-0.351
		c-0.087-0.153-0.13-0.304-0.13-0.45v-3.06v-0.38v-0.4v-0.279c0.08-0.294,0.213-0.514,0.4-0.66c0.146-0.094,0.283-0.164,0.41-0.211
		c0.126-0.046,0.27-0.069,0.43-0.069c0.027,0,0.11,0.01,0.25,0.03c0.14,0.02,0.23,0.029,0.27,0.029
		c0.08,0.027,0.157,0.057,0.23,0.09s0.143,0.098,0.21,0.19c0.027,0.054,0.06,0.11,0.1,0.17s0.073,0.13,0.1,0.21
		c0.04,0.094,0.063,0.18,0.07,0.26s0.023,0.16,0.05,0.24v0.5v0.38v0.64v0.601v0.28h0.4c0.08,0.014,0.173,0.02,0.28,0.02
		c0.093,0.014,0.193,0.02,0.3,0.02c0.106,0,0.227,0,0.36,0c0.08,0,0.283,0,0.61,0s0.72-0.002,1.18-0.01
		c0.46-0.006,0.963-0.01,1.51-0.01s1.07,0,1.57,0s0.953,0.004,1.36,0.01c0.406,0.008,0.71,0.01,0.91,0.01h0.5
		c0.026,0,0.086,0.004,0.18,0.011S97.039,38.476,97.187,38.476z M90.227,30.056v-0.84c-0.027-0.146-0.054-0.277-0.08-0.39
		c-0.027-0.113-0.054-0.23-0.08-0.35c-0.067-0.106-0.127-0.213-0.18-0.32c-0.053-0.106-0.127-0.2-0.22-0.28
		c-0.08-0.08-0.174-0.15-0.28-0.21c-0.107-0.06-0.233-0.123-0.38-0.19c-0.173-0.04-0.34-0.077-0.5-0.11s-0.327-0.05-0.5-0.05
		c-0.187,0-0.367,0.017-0.54,0.05s-0.333,0.07-0.48,0.11c-0.16,0.094-0.31,0.187-0.45,0.28c-0.14,0.093-0.263,0.213-0.37,0.36
		c-0.134,0.107-0.233,0.243-0.3,0.41c-0.067,0.167-0.133,0.363-0.2,0.59c0,0.147,0,0.287,0,0.42s0.013,0.273,0.04,0.42
		c0,0.134,0.026,0.267,0.08,0.4c0.053,0.134,0.12,0.253,0.2,0.36c0.093,0.12,0.193,0.223,0.3,0.31c0.107,0.087,0.22,0.17,0.34,0.25
		c0.146,0.08,0.3,0.15,0.46,0.21s0.353,0.104,0.58,0.13c0.146,0,0.287-0.003,0.42-0.01c0.133-0.006,0.273-0.023,0.42-0.05
		c0.267,0,0.526-0.073,0.78-0.22c0.107-0.053,0.217-0.123,0.33-0.21c0.113-0.086,0.21-0.183,0.29-0.29
		C90.08,30.596,90.187,30.335,90.227,30.056z M97.766,33.296c0,0.133-0.013,0.267-0.039,0.4c-0.027,0.133-0.054,0.273-0.08,0.419
		c-0.12,0.428-0.4,0.688-0.84,0.78c-0.428,0.094-0.771,0-1.03-0.279c-0.261-0.28-0.417-0.614-0.47-1
		c-0.027-0.106-0.044-0.217-0.051-0.33c-0.006-0.113-0.01-0.223-0.01-0.33v-0.68l0.061-5.16c0-0.187-0.004-0.39-0.01-0.61
		c-0.008-0.22,0.006-0.433,0.039-0.64c0.033-0.207,0.104-0.396,0.211-0.57c0.105-0.173,0.272-0.313,0.5-0.42
		c0.105-0.066,0.223-0.103,0.35-0.11c0.127-0.006,0.264,0.003,0.41,0.03c0.307,0.04,0.536,0.167,0.689,0.38s0.243,0.46,0.27,0.74
		v0.68V33.296z"/>
	<path fill="#FFFFFF" d="M110.986,33.536c-0.094,0.014-0.304,0.02-0.631,0.02c-0.326,0-0.676-0.003-1.049-0.01
		c-0.374-0.007-0.728-0.01-1.061-0.01c-0.334,0-0.554,0-0.66,0h-0.02c-0.24,0-0.478-0.003-0.711-0.01
		c-0.232-0.007-0.457-0.027-0.67-0.06s-0.406-0.09-0.58-0.17c-0.173-0.08-0.313-0.2-0.42-0.36c-0.119-0.173-0.203-0.393-0.25-0.66
		s-0.08-0.523-0.1-0.77s-0.027-0.463-0.02-0.65c0.006-0.187,0.01-0.286,0.01-0.3v-0.44c0-0.146,0-0.313,0-0.5
		c0-0.187,0.006-0.393,0.02-0.62c0-0.24,0.004-0.477,0.01-0.71c0.007-0.233,0.01-0.443,0.01-0.63v-0.64c0-0.04,0-0.113,0-0.22
		c0-0.107,0.008-0.223,0.021-0.35c0.013-0.126,0.033-0.253,0.06-0.38c0.027-0.127,0.067-0.23,0.121-0.31
		c0.119-0.187,0.242-0.323,0.369-0.41c0.127-0.086,0.291-0.15,0.49-0.19c0.066-0.013,0.166-0.023,0.301-0.03
		c0.133-0.006,0.26-0.017,0.379-0.03c0.146-0.013,0.301-0.02,0.461-0.02h4.52c0.293,0,0.604,0.023,0.93,0.07
		c0.326,0.047,0.617,0.15,0.87,0.31c0.2,0.12,0.341,0.273,0.421,0.46c0.079,0.187,0.133,0.387,0.159,0.6
		c0.026,0.213,0.033,0.43,0.021,0.65c-0.014,0.22-0.021,0.424-0.021,0.61c0,0.213-0.003,0.423-0.01,0.63
		c-0.007,0.207-0.003,0.417,0.01,0.63v1.1c-0.013,0.067-0.017,0.14-0.01,0.22c0.007,0.08,0.01,0.16,0.01,0.24
		c-0.026,0.173-0.033,0.343-0.021,0.51c0.014,0.167,0.021,0.344,0.021,0.53c0,0.147-0.01,0.303-0.03,0.47
		c-0.02,0.167-0.06,0.333-0.119,0.5c-0.061,0.167-0.141,0.317-0.24,0.45s-0.23,0.227-0.391,0.28c-0.347,0.147-0.709,0.217-1.09,0.21
		C111.716,33.539,111.346,33.536,110.986,33.536z M107.445,40.506c-0.333-0.233-0.5-0.504-0.5-0.811v-2.879
		c-0.026-0.294-0.026-0.594,0-0.9c0.027-0.28,0.137-0.507,0.33-0.68c0.193-0.174,0.443-0.261,0.75-0.261
		c0.066,0,0.188,0.003,0.36,0.011c0.173,0.006,0.294,0.023,0.36,0.049c0.173,0.055,0.311,0.134,0.41,0.24
		c0.1,0.107,0.176,0.23,0.229,0.37s0.087,0.287,0.101,0.44c0.013,0.153,0.026,0.303,0.039,0.449c0,0.055,0.004,0.178,0.011,0.371
		s0.013,0.399,0.021,0.619c0.006,0.221,0.012,0.424,0.02,0.61c0.006,0.187,0.016,0.3,0.029,0.34c0.041,0.014,0.15,0.03,0.33,0.05
		c0.18,0.021,0.518,0.03,1.01,0.03c0.428,0,0.69-0.007,0.791-0.021c0.1-0.013,0.156-0.02,0.17-0.02h6.539
		c0.174,0.054,0.314,0.109,0.42,0.17c0.107,0.061,0.207,0.141,0.301,0.24s0.152,0.217,0.18,0.35c0.066,0.507-0.02,0.9-0.26,1.18
		c-0.16,0.188-0.334,0.301-0.52,0.341c-0.188,0.04-0.287,0.06-0.301,0.06h-9.5C108.219,40.855,107.779,40.738,107.445,40.506z
		 M108.426,27.576c-0.119,0-0.23,0-0.33,0s-0.189,0.014-0.27,0.04c-0.188,0.013-0.34,0.093-0.461,0.24
		c-0.053,0.067-0.082,0.167-0.09,0.3c-0.006,0.133-0.01,0.213-0.01,0.24v0.84c-0.014,0.107-0.02,0.203-0.02,0.29s0,0.163,0,0.23
		v0.24c0,0.16,0.003,0.293,0.01,0.4c0.007,0.107,0.023,0.213,0.051,0.32c0.025,0.107,0.072,0.2,0.139,0.28
		c0.107,0.133,0.281,0.21,0.521,0.23c0.24,0.02,0.479,0.03,0.72,0.03h0.021c0.347-0.013,0.633-0.017,0.86-0.01
		c0.227,0.007,0.52,0.01,0.879,0.01c0.107,0,0.217,0.003,0.33,0.01c0.113,0.007,0.224-0.003,0.33-0.03
		c0.107-0.013,0.181-0.047,0.221-0.1c0.039-0.053,0.072-0.12,0.1-0.2c0.027-0.106,0.04-0.193,0.04-0.26
		c0.054-0.253,0.08-0.54,0.08-0.86c0-0.213,0.003-0.427,0.011-0.64c0.006-0.213,0.002-0.427-0.011-0.64
		c-0.013-0.106-0.017-0.213-0.01-0.32s-0.003-0.213-0.03-0.32c-0.053-0.146-0.141-0.23-0.26-0.25c-0.12-0.02-0.24-0.03-0.36-0.03
		L108.426,27.576z M118.926,31.196v2.08c-0.014,0.146-0.033,0.297-0.061,0.45c-0.026,0.153-0.079,0.304-0.159,0.45
		c-0.094,0.174-0.207,0.3-0.341,0.38c-0.213,0.147-0.439,0.221-0.68,0.221c-0.199,0-0.387-0.054-0.56-0.16
		c-0.134-0.08-0.24-0.181-0.319-0.3c-0.08-0.121-0.145-0.234-0.191-0.341s-0.082-0.247-0.109-0.42v-7.02
		c0-0.066,0.01-0.216,0.03-0.45c0.021-0.233,0.069-0.43,0.149-0.59c0.133-0.28,0.406-0.44,0.82-0.48
		c0.227-0.026,0.439-0.013,0.641,0.04c0.199,0.053,0.353,0.14,0.459,0.26c0.08,0.106,0.137,0.21,0.17,0.31
		c0.033,0.1,0.063,0.204,0.09,0.31c0.041,0.134,0.064,0.273,0.07,0.42c0.007,0.147,0.004,0.293-0.01,0.44v2.16
		c0.053,0,0.143,0.007,0.27,0.02c0.127,0.014,0.261,0.023,0.4,0.03c0.141,0.007,0.273,0.017,0.4,0.03
		c0.127,0.014,0.217,0.027,0.27,0.04c0.268,0.053,0.453,0.13,0.561,0.23c0.106,0.1,0.18,0.224,0.22,0.37
		c0.026,0.147,0.04,0.317,0.04,0.51c0,0.193-0.04,0.357-0.12,0.49c-0.159,0.267-0.399,0.42-0.72,0.46s-0.674,0.06-1.061,0.06
		H118.926z"/>
	<path fill="#FFFFFF" d="M123.105,31.396c0.107-0.013,0.227-0.023,0.36-0.03s0.273-0.01,0.42-0.01h0.5h4.4
		c0.706-0.013,1.399-0.02,2.079-0.02c0.574,0,1.174,0,1.801,0s1.166,0.007,1.62,0.02h0.1c0.267,0.014,0.533,0.02,0.8,0.02
		c0.268,0,0.533,0.054,0.801,0.16c0.186,0.067,0.336,0.18,0.449,0.34c0.113,0.16,0.17,0.34,0.17,0.54
		c0,0.333-0.133,0.614-0.399,0.84c-0.214,0.187-0.474,0.293-0.78,0.32c-0.307,0.027-0.594,0.027-0.859,0h-11.48
		c-0.014,0-0.073,0-0.18,0c-0.107,0-0.23-0.013-0.37-0.04c-0.14-0.026-0.287-0.066-0.44-0.12c-0.153-0.053-0.277-0.133-0.369-0.24
		c-0.16-0.16-0.24-0.387-0.24-0.68c0-0.28,0.086-0.506,0.26-0.68c0.173-0.173,0.354-0.277,0.54-0.31s0.38-0.063,0.579-0.09
		c0.041,0,0.08-0.003,0.121-0.01C123.025,31.399,123.066,31.396,123.105,31.396z M135.445,39.455c0.16,0.08,0.273,0.227,0.341,0.44
		c0.159,0.479-0.014,0.82-0.521,1.021c-0.16,0.066-0.32,0.106-0.479,0.119c-0.16,0.014-0.313,0.021-0.46,0.021h-9.301
		c-0.266,0-0.543-0.003-0.83-0.01c-0.286-0.007-0.576-0.017-0.869-0.03c-0.28-0.014-0.514-0.113-0.7-0.3s-0.294-0.434-0.319-0.74
		l-0.061-1.399c-0.014-0.146-0.014-0.32,0-0.521s0.08-0.366,0.199-0.5c0.188-0.2,0.438-0.327,0.75-0.38
		c0.314-0.053,0.617-0.08,0.91-0.08c0.188,0,0.497,0,0.931,0c0.433,0,1.022,0.004,1.771,0.01c0.746,0.008,1.67,0.01,2.77,0.01
		s2.41,0,3.93,0v-0.72h-9.84c-0.133,0-0.254,0-0.359,0c-0.107,0-0.215-0.013-0.32-0.04c-0.121-0.026-0.227-0.053-0.32-0.08
		c-0.094-0.026-0.174-0.093-0.24-0.199c-0.187-0.28-0.233-0.566-0.14-0.86c0.04-0.106,0.1-0.19,0.18-0.25s0.173-0.11,0.28-0.149
		c0.106-0.04,0.21-0.067,0.311-0.08c0.1-0.014,0.189-0.027,0.27-0.04c0.199-0.04,0.406-0.061,0.619-0.061c0.201,0,0.414,0,0.641,0
		s0.503,0,0.83,0c0.326,0,0.717,0.004,1.17,0.01c0.453,0.007,1.01,0.011,1.67,0.011s1.434,0,2.32,0s1.93,0,3.13,0
		c0.68,0,1.2,0.104,1.56,0.31c0.36,0.206,0.541,0.544,0.541,1.01v1.42c0,0.187-0.044,0.37-0.131,0.55s-0.236,0.33-0.449,0.45
		c-0.174,0.106-0.348,0.163-0.521,0.171c-0.173,0.006-0.347,0.01-0.521,0.01h-9.479v0.72h10.18
		C135.1,39.322,135.286,39.375,135.445,39.455z M122.426,27.676c-0.027-0.333-0.047-0.667-0.061-1
		c-0.013-0.333,0.033-0.646,0.141-0.94c0.146-0.36,0.387-0.59,0.721-0.69c0.332-0.1,0.666-0.15,1-0.15h9.319
		c0.267,0,0.521,0.01,0.761,0.03c0.239,0.02,0.492,0.083,0.76,0.19c0.213,0.093,0.379,0.237,0.5,0.43
		c0.119,0.193,0.173,0.403,0.16,0.63c-0.027,0.227-0.104,0.423-0.23,0.59c-0.127,0.167-0.304,0.277-0.53,0.33
		c-0.267,0.067-0.627,0.1-1.08,0.1c-0.173,0-0.313-0.003-0.42-0.01c-0.106-0.006-0.167-0.01-0.18-0.01h-5.78
		c-0.199,0-0.4,0.003-0.6,0.01c-0.2,0.007-0.4,0.003-0.6-0.01c-0.16-0.013-0.324-0.033-0.49-0.06
		c-0.168-0.026-0.324-0.013-0.471,0.04c-0.146,0.04-0.227,0.133-0.24,0.28c-0.014,0.147,0,0.307,0.041,0.48
		c0.186,0.027,0.376,0.043,0.569,0.05s0.384,0.017,0.57,0.03h3.8c0.053,0,0.18,0.003,0.38,0.01s0.413,0.01,0.64,0.01
		s0.438-0.003,0.631-0.01s0.316-0.01,0.369-0.01c0.041,0,0.131-0.003,0.271-0.01s0.286-0.01,0.44-0.01c0.152,0,0.299,0,0.439,0
		s0.23,0,0.27,0c0.627,0,1.154,0.1,1.58,0.3c0.134,0.067,0.244,0.137,0.33,0.21c0.087,0.073,0.144,0.19,0.17,0.35
		c0.094,0.347,0.033,0.647-0.18,0.9c-0.187,0.253-0.4,0.403-0.64,0.45c-0.24,0.047-0.5,0.077-0.78,0.09
		c-0.133,0-0.394,0.003-0.779,0.01c-0.388,0.007-0.805,0.014-1.25,0.02c-0.447,0.007-0.885,0.01-1.311,0.01c-0.427,0-0.74,0-0.939,0
		c-0.214,0-0.471,0-0.771,0s-0.606-0.003-0.92-0.01c-0.313-0.006-0.614-0.01-0.9-0.01s-0.53,0-0.729,0
		c-0.44-0.013-0.881-0.027-1.32-0.04s-0.88-0.02-1.32-0.02c-0.32,0-0.57-0.05-0.75-0.15c-0.18-0.1-0.31-0.24-0.39-0.42
		c-0.08-0.18-0.127-0.393-0.14-0.64c-0.014-0.247-0.021-0.51-0.021-0.79c0-0.093-0.003-0.187-0.01-0.28
		C122.449,27.863,122.439,27.769,122.426,27.676z"/>
	<path fill="#FFFFFF" d="M142.806,36.996c0-0.16,0-0.32,0-0.48v-6.36c0-0.213,0-0.427,0-0.64c0-0.213-0.013-0.433-0.04-0.66
		c-0.014-0.066-0.029-0.16-0.05-0.28s-0.063-0.193-0.13-0.22c-0.066-0.04-0.144-0.056-0.23-0.05c-0.086,0.007-0.17,0.003-0.25-0.01
		c-0.094-0.013-0.184-0.013-0.27,0c-0.087,0.013-0.177,0.013-0.27,0h-0.94c-0.228,0.013-0.454,0.013-0.681,0s-0.453-0.013-0.68,0
		c-0.106,0.013-0.203,0.017-0.289,0.01c-0.088-0.006-0.184-0.01-0.291-0.01c-0.146,0-0.3-0.007-0.459-0.02
		c-0.16-0.013-0.308-0.067-0.441-0.16c-0.186-0.133-0.313-0.3-0.379-0.5c-0.067-0.2-0.101-0.407-0.101-0.62
		c-0.013-0.253,0.04-0.506,0.16-0.76c0.066-0.16,0.153-0.273,0.261-0.34c0.066-0.066,0.162-0.123,0.289-0.17
		c0.127-0.046,0.236-0.083,0.33-0.11c0.28-0.066,0.573-0.103,0.881-0.11c0.306-0.007,0.605-0.01,0.899-0.01h3.479
		c0.174,0.027,0.357,0.05,0.551,0.07c0.193,0.02,0.369,0.063,0.529,0.13c0.107,0.04,0.211,0.093,0.311,0.16
		c0.1,0.067,0.184,0.147,0.25,0.24c0.119,0.187,0.189,0.374,0.21,0.56c0.021,0.187,0.043,0.394,0.069,0.62
		c0.027,0.373,0.041,0.743,0.041,1.11s0,0.737,0,1.11v6.56c0,0.014,0.002,0.116,0.01,0.31c0.006,0.193,0.01,0.42,0.01,0.681
		c0,0.26,0,0.533,0,0.819c0,0.287-0.007,0.537-0.02,0.75c-0.014,0.134-0.034,0.273-0.061,0.42c-0.027,0.146-0.07,0.287-0.13,0.42
		c-0.06,0.134-0.144,0.254-0.25,0.361c-0.106,0.105-0.247,0.192-0.42,0.26c-0.228,0.093-0.454,0.14-0.681,0.14
		c-0.173,0-0.346-0.037-0.52-0.11s-0.293-0.184-0.359-0.33c-0.214-0.427-0.32-0.9-0.32-1.42v-0.88
		C142.813,37.316,142.806,37.156,142.806,36.996z M152.266,39.436c-0.027,0.16-0.047,0.316-0.06,0.471
		c-0.014,0.152-0.047,0.31-0.101,0.469c-0.026,0.054-0.047,0.101-0.06,0.141c-0.014,0.04-0.034,0.086-0.06,0.141
		c-0.094,0.186-0.214,0.332-0.36,0.439c-0.308,0.187-0.647,0.232-1.021,0.141c-0.213-0.041-0.387-0.121-0.52-0.24
		c-0.12-0.107-0.21-0.244-0.27-0.41c-0.061-0.167-0.107-0.33-0.141-0.49s-0.05-0.3-0.05-0.42s0-0.188,0-0.2v-12.36
		c0-0.16,0-0.333,0-0.52c0-0.187,0.013-0.373,0.04-0.56c0.026-0.187,0.066-0.36,0.119-0.52c0.054-0.16,0.127-0.287,0.221-0.38
		c0.146-0.146,0.3-0.237,0.46-0.27s0.333-0.05,0.521-0.05c0.227,0,0.436,0.063,0.629,0.19c0.193,0.126,0.33,0.303,0.41,0.53
		c0.121,0.28,0.188,0.573,0.201,0.88c0.012,0.307,0.025,0.614,0.039,0.92v0.1c0.027,1.027,0.033,2.08,0.02,3.16
		c-0.013,1.08-0.02,2.1-0.02,3.06v5.06c0,0.12,0.004,0.239,0.01,0.36C152.282,39.195,152.279,39.316,152.266,39.436z"/>
</g>
</svg>
